{
    "asset" : {
        "generator" : "Khronos glTF Blender I/O v1.7.33",
        "version" : "2.0"
    },
    "scene" : 0,
    "scenes" : [
        {
            "name" : "Scene",
            "nodes" : [
                1
            ]
        }
    ],
    "nodes" : [
        {
            "mesh" : 0,
            "name" : "basketball"
        },
        {
            "children" : [
                0
            ],
            "name" : "Basketball",
            "scale" : [
                4.434927463531494,
                4.434927463531494,
                4.434927463531494
            ]
        }
    ],
    "materials" : [
        {
            "doubleSided" : true,
            "name" : "Basketball",
            "normalTexture" : {
                "index" : 0,
                "scale" : 1.6999999284744263
            },
            "pbrMetallicRoughness" : {
                "baseColorTexture" : {
                    "index" : 1
                },
                "metallicFactor" : 0,
                "metallicRoughnessTexture" : {
                    "index" : 2
                }
            }
        }
    ],
    "meshes" : [
        {
            "name" : "Cube.001",
            "primitives" : [
                {
                    "attributes" : {
                        "POSITION" : 0,
                        "NORMAL" : 1,
                        "TEXCOORD_0" : 2
                    },
                    "indices" : 3,
                    "material" : 0
                }
            ]
        }
    ],
    "textures" : [
        {
            "sampler" : 0,
            "source" : 0
        },
        {
            "sampler" : 0,
            "source" : 1
        },
        {
            "sampler" : 0,
            "source" : 2
        }
    ],
    "images" : [
        {
            "bufferView" : 4,
            "mimeType" : "image/jpeg",
            "name" : "Basketball_Normal"
        },
        {
            "bufferView" : 5,
            "mimeType" : "image/png",
            "name" : "Basketball_Albedo"
        },
        {
            "bufferView" : 6,
            "mimeType" : "image/png",
            "name" : "Basketball_Roughness"
        }
    ],
    "accessors" : [
        {
            "bufferView" : 0,
            "componentType" : 5126,
            "count" : 3490,
            "max" : [
                0.12287712842226028,
                0.24580886960029602,
                0.12277307361364365
            ],
            "min" : [
                -0.12287712842226028,
                5.457274164655246e-05,
                -0.12277296185493469
            ],
            "type" : "VEC3"
        },
        {
            "bufferView" : 1,
            "componentType" : 5126,
            "count" : 3490,
            "type" : "VEC3"
        },
        {
            "bufferView" : 2,
            "componentType" : 5126,
            "count" : 3490,
            "type" : "VEC2"
        },
        {
            "bufferView" : 3,
            "componentType" : 5123,
            "count" : 20112,
            "type" : "SCALAR"
        }
    ],
    "bufferViews" : [
        {
            "buffer" : 0,
            "byteLength" : 41880,
            "byteOffset" : 0
        },
        {
            "buffer" : 0,
            "byteLength" : 41880,
            "byteOffset" : 41880
        },
        {
            "buffer" : 0,
            "byteLength" : 27920,
            "byteOffset" : 83760
        },
        {
            "buffer" : 0,
            "byteLength" : 40224,
            "byteOffset" : 111680
        },
        {
            "buffer" : 0,
            "byteLength" : 622579,
            "byteOffset" : 151904
        },
        {
            "buffer" : 0,
            "byteLength" : 40017,
            "byteOffset" : 774484
        },
        {
            "buffer" : 0,
            "byteLength" : 101845,
            "byteOffset" : 814504
        }
    ],
    "samplers" : [
        {
            "magFilter" : 9729,
            "minFilter" : 9987
        }
    ],
    "buffers" : [
        {
            "byteLength" : 916352,
            "uri" : "data:application/octet-stream;base64,"
        }
    ]
}
